<?xml version="1.0" encoding="UTF-8"?>
<svg id="Layer_1" data-name="Layer 1" xmlns="http://www.w3.org/2000/svg" viewBox="0 0 281.11 360.74">
  <defs>
    <style>
      .cls-1 {
        fill: #fff;
      }
    </style>
  </defs>
  <path class="cls-1" d="M208.8,282.98v55.02c0,11.09-9.16,21.12-19.92,22.75l-169.64-.11c-8.6-1.58-16.69-8.97-18.2-17.73-1.31-7.58-1.32-34.49-.37-42.36.19-1.53,1.78-4.84,3.4-4.84h192.75v-12.73c-14.89,3.76-9.24-14.3-12.9-18.53-.23-.27-5.91-2.67-6.54-2.83-8.01-2.13-12.43,13.7-21.74,6.79-2.82-2.09-13.25-12.53-15.35-15.35-5.61-7.54,4.4-12.49,6.97-19.22l-3.52-8.76c-7.83-3.58-18.45,2.03-19.55-9.82-.39-4.15-.51-20.65,1.21-23.55,2.91-4.9,13.3-3.47,18.11-5.46.12-2.83,2.8-6.21,3.04-8.64.49-4.83-12.76-11.37-8.45-18.11,1.08-1.69,17.56-18.21,18.83-18.59,5.26-1.61,11.97,6.23,16.42,8.67l9.9-3.68c1.06-4.89-.35-15.86,4.58-18.25,3.38-1.64,20-1.6,24.34-1.11,9.69,1.09,6.74,11.75,8.96,18.74,2.87.7,8.35,4.53,10.86,3.35,2.8-1.31,8.25-8.1,11.21-9.04,2.18-.7,3.39-.34,5.24.84,2.25,1.43,15.04,14.34,16.89,16.79,5.07,6.72-4.64,12.34-7.01,18.52l3.24,9.2c4.72,2.3,17.87-.03,19.09,6.36.76,4,.47,19.42.05,23.97-.88,9.56-12.87,5-17.99,8.21-.39.25-3.46,6.89-3.61,7.66-1.35,6.77,13.05,11.83,7.69,20.37-1.35,2.15-12.93,13.57-15.29,15.4-8.4,6.5-12.21-3.48-19.9-6.39l-8.56,3.38c-3.75,9.93,1.81,21.65-14.23,19.08ZM196.82,271.75h13.47c.56-5.01-.78-14.34,4.22-17.12,1.86-1.03,4.25-1.07,6.25-1.98,2.94-1.34,8.89-5.03,11.6-4.91,3.87.16,12.01,8.47,13.38,8.24l8.37-8.2c1.17-2.37-6.96-9.12-7.73-11.74-1.17-3.98,2.5-9.56,4.15-13.5,1.21-2.9.88-6.33,3.53-8.44,2.95-2.35,11.4-2.44,15.36-2.98v-13.05c-.16-1.12-15.47-.48-16.81-4.21-.17-4.8-7.19-14.69-7.2-18.3,0-4.19,7.18-9.73,8.17-14.11-.11-.55-6.87-7.42-7.73-8.01-.66-.45-1.02-1.08-1.89-.37-3.01,2.34-8.71,8.56-12.37,8.71-3.14.12-7.07-2.91-10.1-4.16-2.49-1.02-7.76-1.8-9.31-3.42-2.52-2.63-2.98-15.57-3.83-15.71l-13.05.03c-.66,3.82-.23,12.91-2.63,15.71-1.34,1.56-8.83,3.34-11.36,4.36-3.81,1.53-5.47,4.88-10.24,3.07-3.26-1.24-8.19-6.67-10.75-7.31-1.98-.49-8.14,6.5-9.16,8.48-.08,3,7.9,8.54,8.28,12.74.35,3.81-1.59,4.4-2.67,7.13-1.48,3.74-3.46,12.48-6.95,14.01-1.87.82-13.55,2.07-13.69,2.88l.37,12.34c1.07,1.53,12.05.2,15.04,2.93,2.81,2.56,4.86,14.41,8.27,17.99,1.34,5.42-8.92,13.02-7.58,15.7l8.38,8.18c2.04.35,9.52-8.75,13.35-8.82,2.94-.06,14.29,7.34,18.64,7.49,3.18,2.22,3.03,12.61,4.2,16.38ZM196.82,306.93H11.93v33.31c0,2.76,4.71,8.28,7.81,8.66l166.22.7c4.01-.05,10.85-4.37,10.85-8.61v-34.06Z"/>
  <path class="cls-1" d="M196.82,53.93H11.93v221.94c0,.59-1.96,2.85-2.7,3.28-4.26,2.47-8.75-.79-8.56-5.49V20.59C1.63,9.57,10.37,1.21,21.26,0h166.23c13.26,1.46,20.29,10.68,20.38,23.77.01,2.14.14,5.33.14,7.29.02,17.72.07,35.44.01,53.16-1.5,6.05-11.21,4.77-11.21-.73v-29.57ZM196.82,42.7v-23.58c0-1.91-4.9-6.66-7.07-7.15l-167-.75c-3.65-.65-10.82,5.53-10.82,8.65v22.83h184.89Z"/>
  <path class="cls-1" d="M118.01,66.78c4.75-.75,7.75,4.66,5.84,8.86-12.02,25.24-19.58,55.63-31.93,80.35-4.55,9.11-12.55,7.03-11.5-2.52,12.46-25.32,19.69-56.6,32.44-81.35,1.05-2.03,2.63-4.95,5.16-5.34Z"/>
  <path class="cls-1" d="M141.98,84.74c2.08-.37,3.84.56,5.47,1.72,4.06,2.88,18.7,17.89,22.06,22.11,2.23,2.79,3.48,4.47,2.28,8.28-.52,1.64-21.28,22.57-23.97,24.67-6.17,4.82-12.26.28-9.71-5.98,2.34-5.74,16.51-15.61,20.54-21.36,0-1.45-18.87-17.1-20.38-20.77-1.34-3.26-.19-7.98,3.73-8.67Z"/>
  <path class="cls-1" d="M70.09,142.04c-1.88,2.33-5.56,2.08-7.98.56-3.29-2.08-19.95-19.14-22.87-22.79-2.14-2.68-3.93-5.14-1.9-8.66l24.05-24.6c5.56-4.7,11.73.46,9.28,7.04l-19.85,20.6,19.39,20.3c1.2,1.98,1.34,5.73-.13,7.55Z"/>
  <path class="cls-1" d="M197.39,175.38c45.6-6.21,45.8,62.32,3.56,59.68-36.1-2.26-36.78-55.15-3.56-59.68ZM208.05,222.35c20.91-5.8,15.67-37-6.39-35.96-20.35.95-24.42,30.01-4.83,35.96v-22.08c0-1.45,3.89-4.74,5.67-4.86,1.57-.1,5.56,2.37,5.56,3.36v23.58Z"/>
  <path class="cls-1" d="M79.11,324.33c25.34,0,25.32-.11,49.91-.11,8.96,0,8.7,11.93.83,11.93q-23.14,0-51.62-.06c-6.4-1-7.44-11.75.88-11.75Z"/>
  <path class="cls-1" d="M100.47,22.7c1.87-1.87,3.38-1.73,4.64-1.73,13.99,0,14.17.06,28.42.06,6.58,0,6.86,11.14.74,11.14-13.98,0-13.93.03-29.53.03-3.43,0-6.31-2.97-5.83-6.37.16-1.14.66-2.24,1.55-3.13Z"/>
</svg>