<?xml version="1.0" encoding="UTF-8"?>
<svg id="Layer_1" data-name="Layer 1" xmlns="http://www.w3.org/2000/svg" viewBox="0 0 1500 1149">
  <defs>
    <style>
      .cls-1 {
        fill: #6d6d6d;
      }

      .cls-2 {
        fill: #7d7d7d;
      }

      .cls-3 {
        fill: #fff;
      }

      .cls-4 {
        fill: #7e7e7e;
      }

      .cls-5 {
        fill: #282828;
      }
    </style>
  </defs>
  <path class="cls-3" d="M1290.09,0c1.04,1.66,3.79,1,5.48,1.02,62.58.66,122.44-9.87,169.41,40.47,19.17,20.55,27.55,41.87,33.03,68.99.35,1.71.14,3.5,1.98,4.52v7c-1.65,1.04-1,3.79-1.02,5.49-1.55,147.1.02,294.41.02,441.51v249c0,68.12-.86,136.39-.02,204.51.02,1.69-.64,4.45,1.02,5.49v7c-2.36.67-1.76,2.71-2.08,4.42-9.37,49.78-42.45,90.96-92.64,104.31-8.72,2.32-17.71,2.08-26.22,5.27H128.61c-3.53-2.26-8.5-.39-12.44-1.05-61.86-10.28-111.85-55.52-114.5-120.95-5.26-129.88,3.93-263.26.02-393.51l-1.02-5.49v-211c1.66-1.04,1-3.79,1.02-5.49,1.19-95.83-3.6-194.15-.02-289.51.31-8.18,1.19-16.45,3.04-23.45C19.63,42.15,68.95,2.76,127.2,1.05l2.41-1.05h1160.48ZM71.64,122.5v158l1356.73,1.54,1.71-5.5c-2.05-47.43,2.56-96.9,0-144.09-1.56-28.88-16.51-51.19-44.64-59.34-414.86-3.27-830.41,1.01-1245.29-2.15-31.81-3.52-65.2,18.59-68.51,51.54ZM1427.53,352H74.14c-.19,0-3.53,1.22-3.52,1.54l1.08,4.91c.71,224.89-1.68,450.08,1.2,674.8,7.32,27.77,35.1,48.92,64.17,43.71l1241.53.09c30.46-3.89,50.68-29.37,51.34-59.65.05-2.16-.98-4.32-.95-6.85,2.3-218.08-1.66-436.76.1-655.1l-1.55-3.45Z"/>
  <path class="cls-1" d="M1500,569h-1c0-147.1-1.57-294.42-.02-441.51.02-1.69-.64-4.45,1.02-5.49v447Z"/>
  <path class="cls-2" d="M1.67,1027h-1v-399l1.02,5.49c3.91,130.25-5.28,263.63-.02,393.51Z"/>
  <path class="cls-4" d="M.67,417V122h1c-3.59,95.36,1.21,193.69.02,289.51-.02,1.69.64,4.45-1.02,5.49Z"/>
  <rect class="cls-5" x="1499" y="569" width="1" height="249"/>
  <path class="cls-1" d="M1500,1028c-1.66-1.04-1-3.79-1.02-5.49-.85-68.12.02-136.39.02-204.51h1v210Z"/>
  <path class="cls-3" d="M567.83,549.59c21.45,20.98,10.1,44.49-11.54,58.78-55.85,36.89-116.76,68.7-173.2,105.27-.77.5-1.71.44-2.59.37l1.09,2.4,176.56,106.32c22.59,12.19,28.24,42.91,7.78,60.25-17.98,15.23-39.87,4.69-56.8-6.17-67.54-46.05-145.81-82.93-212.51-129.39-23.72-16.52-27.55-40.14-6.07-60.87l235.37-142.55c14.09-7.44,30.49-5.57,41.9,5.6Z"/>
  <path class="cls-3" d="M1035.82,580.4c45.32,27.28,90.57,55.63,135.63,83.31,12.02,7.38,27.6,14.14,39.18,23.29,19.02,15.02,17.87,43.27-1.61,57.39-73.39,42.46-144.77,90.06-217.63,132.5-4.83,2.82-19.64,11.96-23.93,12.83-41.35,8.36-61.63-40.19-29.09-64.1l181.79-110.13c.42-1.91-.47-1.24-1.24-1.76-4.99-3.37-10.83-5.73-15.92-8.83-33.41-20.41-66.79-41.39-100.28-61.9-20.91-12.81-48.97-26.52-67.84-41.18-31.24-24.26-1.11-78.82,40.71-57.68,19.02,9.61,41.41,24.94,60.22,36.27Z"/>
  <path class="cls-3" d="M862.95,453.35c11.01,8.4,14.04,22.61,12.09,35.9l-180.65,470.27c-15.22,41.78-75.57,26.95-68.72-17.75,44.41-117.7,90.73-234.93,135.69-352.25,13.95-36.41,26.01-76,41.46-111.52,2.53-5.81,6.63-14.73,10.51-19.49,12.12-14.88,34.54-16.68,49.62-5.17Z"/>
  <path class="cls-3" d="M1295.65,151.45c29.3,15.38,20.41,62.53-15.02,66.58-20.1,2.3-48.87-.14-70.04-.07-163.22.53-327.57.51-490.7,0-23.69-.07-54.29,2.41-77.02.05-43.6-4.53-44.25-67.52.97-71.04h635.79c5.58.84,11.03,1.87,16.02,4.49Z"/>
  <ellipse class="cls-3" cx="339.58" cy="182.37" rx="35.29" ry="35.31"/>
  <ellipse class="cls-3" cx="223.56" cy="182.37" rx="35.26" ry="35.28"/>
  <ellipse class="cls-3" cx="457.77" cy="182.38" rx="35.23" ry="35.25"/>
</svg>