<?xml version="1.0" encoding="UTF-8"?>
<svg id="Layer_1" data-name="Layer 1" xmlns="http://www.w3.org/2000/svg" viewBox="0 0 512 512">
  <defs>
    <style>
      .cls-1 {
        fill: #fff;
      }

      .cls-2 {
        fill: #fafafa;
      }
    </style>
  </defs>
  <path class="cls-1" d="M72,0c1.66,1.5,7,4.06,7,6.5v22l137,1.5V9.5c0-4.04,4.55-7.97,8-9.5h64c3.45,1.53,8,5.46,8,9.5v20.5l137-1.5V6.5c0-2.44,5.34-5,7-6.5h72v73c-2.72,3.84-5.75,6.25-10.59,6.91-12.22,1.66-43.17,1.21-55.95.12-5.92-.5-13.47-3.29-13.47-10.53v-19.5h-81l25.92,14.58c61.88,38.91,102.24,108,105.08,181.42,10.21,1.3,24.58-4.36,30.01,6.99v66c-2.95,4.28-6.22,6.41-11.5,7-12.7,1.42-43.15,1.28-55.99-.02-8.38-.85-11.65-4.12-12.5-12.5-1.32-13.12-1.31-41.84,0-54.97.44-4.36,3.07-12.51,8.49-12.51h21.5c-4.36-92.81-74.38-175.22-166-192v16.5c0,1.14-2.72,6.04-4.02,6.98-2.58,1.89-7.28,2.33-10.44,2.56-13.6,1-40.74,1.4-53.93-.15-2.11-.25-5.91-1.17-7.6-2.4-1.29-.95-4.02-5.84-4.02-6.98v-16.5C124.38,70.78,54.36,153.19,50,246h21.5c5.42,0,8.05,8.15,8.49,12.51,1.31,13.13,1.32,41.85,0,54.97-.85,8.38-4.12,11.65-12.5,12.5-12.84,1.3-43.29,1.44-55.99.02-5.28-.59-8.54-2.72-11.5-7v-67c6.8-9.83,19.85-4.85,30.01-5.99,2.84-73.42,43.2-142.52,105.08-181.42l25.92-14.58h-81v19.5c0,7.24-7.55,10.03-13.47,10.53-12.78,1.09-43.72,1.54-55.95-.12-4.84-.66-7.87-3.07-10.59-6.91V0h72ZM59,20H20v40h39V20ZM276,20h-40v38.5l1.5,1.5h37l1.5-1.5V20ZM492,20h-39v40h39V20ZM59,266H20v40h39v-40ZM492,266h-39v40h39v-40Z"/>
  <path class="cls-1" d="M184,512c-2.9-2.81-5.8-4.96-6.02-9.48v-82.01c-3.43-5.03-9.08-7.69-12.51-13.49-7.76-13.11-3.37-31.38,9.2-39.87,1.73-1.17,10.26-5.16,11.84-5.16h14.5c-5.3-21.3-14.32-41.3-28.03-58.47-6.29-7.88-20.39-17.02-17.19-27.25,1.4-4.49,11.05-21.44,14.02-25.97,3.85-5.86,10.76-11.16,17.23-4.85,9.46,9.21-7.79,24.11-8.91,33.83,22.01,22.45,37.4,51.56,42.91,82.66h69.91c5.51-31.11,20.91-60.21,42.91-82.66l-67.87-124.29v73c39.03,12.11,27.09,69.6-13.54,66.04-36.19-3.17-41.73-56.17-6.46-66.04v-73l-23.96,41.54c-8.48,8.9-21.07-.04-16.26-11.26,14.87-22.94,25.75-51.81,40.81-74.19,5.93-8.82,14.71-8.09,19.58,1.25l90.63,165.41c1.7,8.72-12.18,18.79-17.77,25.79-13.71,17.17-22.72,37.18-28.03,58.47h14.5c1.58,0,10.1,3.99,11.84,5.16,18.48,12.48,16.88,40.46-2.41,51.26l-.9,84.1c-.68,5.69-3.21,7.32-8.02,9.48h-6c-1.43-1.59-6-5.45-6-7.5v-82.5h-116v82.5c0,3.07-5.37,6.46-8,7.5h-6ZM253.76,246.22c-17.9,2.58-14.34,31.12,5.51,27.54,16.17-2.91,13.24-30.25-5.51-27.54ZM189.73,382.23c-11.59,3.16-10.3,18.51,1.75,19.79h129.05c13.3-1.6,12.8-18.66,0-20.05l-130.79.25Z"/>
  <path class="cls-1" d="M194.76,212.19c12.76-2.23,16.36,16.92,4.53,19.61-14.11,3.21-17.07-17.41-4.53-19.61Z"/>
  <path class="cls-2" d="M253.76,246.22c18.75-2.71,21.68,24.63,5.51,27.54-19.85,3.58-23.41-24.96-5.51-27.54Z"/>
</svg>