<?xml version="1.0" encoding="UTF-8"?>
<svg id="Layer_1" xmlns="http://www.w3.org/2000/svg" version="1.1" viewBox="0 0 409.6 319.87">
  <!-- Generator: Adobe Illustrator 29.5.0, SVG Export Plug-In . SVG Version: 2.1.0 Build 137)  -->
  <defs>
    <style>
      .st0 {
        fill: #fff;
      }
    </style>
  </defs>
  <path class="st0" d="M409.6,27.35v267.48c-4.76,14.7-14.89,24.4-30.71,25.58H31.51c-16.75-1.25-29.24-13.08-30.74-29.94V31.7C1.78,14.53,14.48,2.24,31.51.97l348.14.04c15.45,1.29,26.08,11.74,29.95,26.34ZM397.62,52.1v-22.76c0-.34-2.11-5.45-2.54-6.25-3.44-6.45-9.88-9.54-17-10.15H33.1c-7.37.31-14.25,3.5-17.79,10.15-.43.8-2.54,5.91-2.54,6.25v22.76h384.85ZM397.62,64.08H12.78v227.95c0,.34,2.11,5.45,2.54,6.25,3.44,6.45,9.88,9.54,17,10.15h344.99c7.37-.31,14.25-3.5,17.79-10.15.43-.8,2.54-5.91,2.54-6.25V64.08Z"/>
  <path class="st0" d="M205.2,179.85h12.38l1.05-1.34c.58-10.79,8.81-16.75,19.01-17.72,36.21-3.44,77.34,2.35,114.06-.09,19.05,1.71,20.86,16.19,19.61,32.36-.81,10.46-7.77,17.43-18.1,18.63-37.37-1.93-77.91,2.91-114.91.13-7.52-.56-15.34-3.76-18.33-11.22-1.18-2.94-.68-5.84-2.4-7.98h-12.38v53.89c0,2.8,10.06,5.61,12.66,4.28,1.13-9.49,6.53-17.56,16.48-19.05l122.09.07c15.5,3.73,16.02,18.88,14.87,32.29-.83,9.65-7.79,16.35-17.19,17.94l-120.21-.36c-9.67-1.85-14.75-9.4-16.03-18.7-8.46.56-17.81-1.29-22.41-9.12-.87-1.49-3.03-7.56-3.03-8.95v-52.3h-12.78v19.56c0,1.04-1.47,6.27-2,7.58-3.03,7.46-10.77,10.65-18.33,11.22-33.15,2.49-69.47-1.86-102.94-.12-9.97-1.69-16.5-8.5-17.29-18.64-1.37-17.6.93-37.13.22-54.94,2.81-10.37,9.67-14.96,20.14-15.79,32.44,2.42,69.44-3.18,101.33.13,7.44.77,14.63,4.96,17.31,12.23.31.86,1.55,5.9,1.55,6.43v19.56h12.78v-52.3c0-.92,1.71-6.12,2.26-7.33,4.16-9.12,14.3-10.94,23.35-10.98,1.1-10.07,7.18-17.07,17.32-18.61l117.95-.2c8.99.9,16.99,7.96,17.98,17.15,1.79,16.58-.51,32.91-20.38,33.93-36.44-2.24-76.55,3.04-112.56,0-11.66-.98-18.69-7.09-20.32-18.81-.87-.63-7.76-.57-9.07-.18-.72.21-3.76,3.18-3.76,3.43v53.89ZM357.46,126.92c3.22-3.81,4.24-25.63-5.82-24.45-36.11,2.17-76.08-3.12-111.74-.1-3.31.28-8.39,1.29-9.14,5.24-.45,2.36-.37,14.25.15,16.58s2.7,4.18,5.07,4.51l116.58.1c1.5.08,3.98-.79,4.9-1.88ZM55.66,154.47c-3.56.82-4.32,5.05-4.6,8.18-.99,11.32-1.3,37.76.01,48.76.67,5.6,3.94,7.14,9.17,7.6,31.52-2.07,66.34,2.65,97.47,0,3.61-.31,6.61-.87,8.74-4.04v-57.45s-2.79-2.79-2.79-2.79l-108-.25ZM357.46,175.29c-.92-1.09-3.4-1.96-4.9-1.88l-117.4.07c-1.72.33-4.07,2.71-4.39,4.39-.42,2.23-.42,14.51,0,16.73.75,3.95,5.83,4.95,9.14,5.24,35.4,3,75.08-2.23,110.92-.12,4.04-.61,7.38-1.58,8.29-6.08.72-3.57.65-15.62-1.65-18.35ZM235.31,243.9c-2.04.46-3.94,2.36-4.39,4.39-.52,2.33-.6,14.21-.15,16.58.51,2.7,4.26,4.91,6.84,5.14l113.31.08c1.65-.18,4.77-.95,5.97-2.02,3.54-3.16,4.88-23.93-3.62-24.29l-117.95.13Z"/>
  <path class="st0" d="M343.9,28.37c2.72,2.74,2.19,7.95-1.57,9.55l-245.36.64c-9.45-.44-8.26-12.22.8-12.06h240.41c1.6.01,4.65.78,5.72,1.86Z"/>
  <path class="st0" d="M363.86,26.72c2.44-.55,13.96-.53,16.24.19,5.72,1.79,4.69,10.63-.46,11.6-2,.38-14.87.35-16.58-.14-5.23-1.53-5.02-10.34.8-11.64Z"/>
  <path class="st0" d="M30.93,26.69c7.91-1.61,10.02,9.76,3.64,11.67-8.91,2.67-11.22-10.12-3.64-11.67Z"/>
  <path class="st0" d="M50.09,26.69c8.12-1.67,10.04,9.75,3.64,11.67-8.71,2.61-11.21-10.11-3.64-11.67Z"/>
  <path class="st0" d="M69.25,26.69c8.12-1.67,10.04,9.75,3.64,11.67-8.71,2.61-11.21-10.11-3.64-11.67Z"/>
</svg>